<svg xmlns="http://www.w3.org/2000/svg" viewBox="0 0 74.02 85.47"><defs><style>.cls-1{fill:#7050e5;}.cls-2{fill:#fff;}.cls-3{fill:#f69220;}</style></defs><g id="Слой_2" data-name="Слой 2"><g id="Layer_1" data-name="Layer 1"><polygon class="cls-1" points="0 21.37 0 64.1 37.01 85.47 74.02 64.1 74.02 21.37 37.01 0 0 21.37"/><path class="cls-2" d="M60.45,23.93a20.87,20.87,0,0,0-10.36,3.25c-4.65,3.19-13,12.42-13,12.42s-5.74,6-12.77,8.13A35.52,35.52,0,0,1,13.57,49V61.54s8.48-.29,11.44-.87a26.29,26.29,0,0,0,14.16-6.73c5.34-5.11,11.09-10.8,13-12.95A16.88,16.88,0,0,1,58,36.7a17.48,17.48,0,0,1,2.47-.41Z"/><rect class="cls-3" x="47.61" y="48.54" width="13" height="13"/></g></g></svg>