<svg width="24" height="24" viewBox="0 0 24 24" fill="none" xmlns="http://www.w3.org/2000/svg">
<path fill-rule="evenodd" clip-rule="evenodd" d="M4.29283 4.29293C4.68336 3.90241 5.31652 3.90241 5.70705 4.29293L11.9999 10.5858L18.2928 4.29293C18.6834 3.90241 19.3165 3.90241 19.707 4.29293C20.0976 4.68346 20.0976 5.31662 19.707 5.70715L13.4141 12L19.707 18.2929C20.0976 18.6835 20.0976 19.3166 19.707 19.7071C19.3165 20.0977 18.6834 20.0977 18.2928 19.7071L11.9999 13.4142L5.70705 19.7071C5.31652 20.0977 4.68336 20.0977 4.29283 19.7071C3.90231 19.3166 3.90231 18.6835 4.29283 18.2929L10.5857 12L4.29283 5.70715C3.90231 5.31662 3.90231 4.68346 4.29283 4.29293Z" fill="#FFFFFF"/>
</svg>
