<svg width="187" height="62" viewBox="0 0 187 62" fill="none" xmlns="http://www.w3.org/2000/svg">
<path d="M65.1809 18.3242C65.1809 19.4021 64.8392 20.2618 64.1559 20.8905C63.3906 21.6476 62.3792 22.0325 61.1493 22.0325C59.9603 22.0325 58.9626 21.6476 58.1289 20.8777C57.2953 20.1078 56.8853 19.1454 56.8853 18.0163C56.8853 16.8743 57.2953 15.9247 58.1289 15.1548C58.9626 14.3849 59.9603 14 61.1493 14C61.7369 14 62.2972 14.1027 62.8302 14.3208C63.3632 14.5389 63.7869 14.8212 64.1149 15.1805L63.3906 15.8606C62.8439 15.2575 62.1059 14.9495 61.1493 14.9495C60.2883 14.9495 59.5366 15.2318 58.9079 15.8092C58.2793 16.3738 57.9649 17.118 57.9649 18.0291C57.9649 18.9401 58.2793 19.6843 58.9079 20.2489C59.5366 20.8135 60.2883 21.1086 61.1493 21.1086C62.0649 21.1086 62.8302 20.8263 63.4452 20.2489C63.8416 19.8768 64.0739 19.3507 64.1286 18.6835H61.1493V17.7468H65.1262C65.1536 17.9521 65.1809 18.1446 65.1809 18.3242Z" fill="white" stroke="white" stroke-width="0.256629" stroke-miterlimit="10"/>
<path d="M71.481 15.1165H67.7499V17.5545H71.112V18.4784H67.7499V20.9163H71.481V21.8659H66.6976V14.167H71.481V15.1165Z" fill="white" stroke="white" stroke-width="0.256629" stroke-miterlimit="10"/>
<path d="M75.9224 21.8659H74.87V15.1165H72.574V14.167H78.2047V15.1165H75.9087V21.8659H75.9224Z" fill="white" stroke="white" stroke-width="0.256629" stroke-miterlimit="10"/>
<path d="M82.2908 21.8659V14.167H83.343V21.8659H82.2908Z" fill="white" stroke="white" stroke-width="0.256629" stroke-miterlimit="10"/>
<path d="M88.0181 21.8659H86.9657V15.1165H84.6697V14.167H90.3004V15.1165H88.0044V21.8659H88.0181Z" fill="white" stroke="white" stroke-width="0.256629" stroke-miterlimit="10"/>
<path d="M100.973 20.8648C100.167 21.6476 99.1694 22.0325 97.9667 22.0325C96.7641 22.0325 95.7664 21.6476 94.9601 20.8648C94.1537 20.0821 93.7574 19.1326 93.7574 18.0163C93.7574 16.8999 94.1537 15.9376 94.9601 15.1677C95.7664 14.3849 96.7641 14 97.9667 14C99.1557 14 100.153 14.3849 100.973 15.1677C101.78 15.9504 102.19 16.8999 102.19 18.0163C102.176 19.1454 101.78 20.095 100.973 20.8648ZM95.7391 20.2233C96.3404 20.8007 97.092 21.083 97.9667 21.083C98.8414 21.083 99.593 20.8007 100.194 20.2233C100.796 19.6459 101.11 18.9145 101.11 18.0163C101.11 17.118 100.809 16.3867 100.194 15.8092C99.593 15.2318 98.8414 14.9367 97.9667 14.9367C97.092 14.9367 96.3404 15.219 95.7391 15.7964C95.1377 16.3867 94.8234 17.118 94.8234 18.0163C94.8234 18.9145 95.1377 19.6459 95.7391 20.2233Z" fill="white" stroke="white" stroke-width="0.256629" stroke-miterlimit="10"/>
<path d="M103.666 21.8659V14.167H104.951L108.941 20.1593H108.982L108.941 18.6708V14.167H109.994V21.8659H108.9L104.732 15.5913H104.691L104.732 17.0797V21.8659H103.666Z" fill="white" stroke="white" stroke-width="0.256629" stroke-miterlimit="10"/>
<path d="M93.498 33.0933C90.2863 33.0933 87.6623 35.3901 87.6623 38.5467C87.6623 41.6904 90.2863 44.0001 93.498 44.0001C96.7096 44.0001 99.3336 41.6904 99.3336 38.5467C99.3336 35.3901 96.7096 33.0933 93.498 33.0933ZM93.498 41.8572C91.735 41.8572 90.218 40.4971 90.218 38.5467C90.218 36.5835 91.735 35.2362 93.498 35.2362C95.261 35.2362 96.778 36.5835 96.778 38.5467C96.778 40.4971 95.2473 41.8572 93.498 41.8572ZM80.7607 33.0933C77.549 33.0933 74.925 35.3901 74.925 38.5467C74.925 41.6904 77.549 44.0001 80.7607 44.0001C83.9723 44.0001 86.5963 41.6904 86.5963 38.5467C86.5963 35.3901 83.9723 33.0933 80.7607 33.0933ZM80.7607 41.8572C78.9977 41.8572 77.4807 40.4971 77.4807 38.5467C77.4807 36.5835 78.9977 35.2362 80.7607 35.2362C82.5237 35.2362 84.0407 36.5835 84.0407 38.5467C84.0407 40.4971 82.5237 41.8572 80.7607 41.8572ZM65.6181 34.7742V37.0839H71.522C71.3444 38.3799 70.8797 39.3422 70.1827 39.9966C69.3217 40.805 67.9824 41.6904 65.6317 41.6904C61.9964 41.6904 59.1537 38.9445 59.1537 35.5313C59.1537 32.1181 61.9964 29.3722 65.6317 29.3722C67.5861 29.3722 69.0211 30.0907 70.0734 31.0274L71.809 29.3978C70.333 28.0762 68.3787 27.0625 65.6181 27.0625C60.6434 27.0625 56.4614 30.8606 56.4614 35.5441C56.4614 40.2148 60.6434 44.0257 65.6181 44.0257C68.3104 44.0257 70.333 43.2045 71.9184 41.6519C73.5447 40.1249 74.0504 37.9693 74.0504 36.237C74.0504 35.6981 74.0094 35.1977 73.9137 34.7871H65.6181V34.7742ZM127.542 36.5706C127.063 35.3516 125.587 33.0933 122.567 33.0933C119.574 33.0933 117.087 35.3003 117.087 38.5467C117.087 41.6006 119.547 44.0001 122.854 44.0001C125.519 44.0001 127.063 42.4731 127.692 41.5877L125.71 40.3431C125.054 41.2541 124.152 41.8572 122.854 41.8572C121.556 41.8572 120.626 41.2926 120.039 40.2019L127.815 37.1865L127.542 36.5706ZM119.615 38.3927C119.547 36.2883 121.351 35.2105 122.649 35.2105C123.66 35.2105 124.521 35.6853 124.808 36.3653L119.615 38.3927ZM113.301 43.6793H115.857V27.6399H113.301V43.6793ZM109.119 34.3123H109.023C108.449 33.6707 107.356 33.0933 105.962 33.0933C103.051 33.0933 100.386 35.4928 100.386 38.5723C100.386 41.6262 103.051 44.0129 105.962 44.0129C107.342 44.0129 108.449 43.4355 109.023 42.7682H109.105V43.551C109.105 45.6425 107.916 46.7588 106.003 46.7588C104.445 46.7588 103.475 45.7066 103.078 44.8213L100.851 45.6938C101.493 47.1438 103.188 48.9145 106.003 48.9145C108.996 48.9145 111.524 47.2593 111.524 43.2302V33.4269H109.105V34.3123H109.119ZM106.181 41.8572C104.418 41.8572 102.942 40.4714 102.942 38.5723C102.942 36.6476 104.418 35.249 106.181 35.249C107.916 35.249 109.283 36.6604 109.283 38.5723C109.297 40.4714 107.93 41.8572 106.181 41.8572ZM139.513 27.6399H133.405V43.6793H135.96V37.5971H139.527C142.356 37.5971 145.13 35.6724 145.13 32.6185C145.13 29.5646 142.329 27.6399 139.513 27.6399ZM139.568 35.3645H135.947V29.8598H139.568C141.481 29.8598 142.561 31.3482 142.561 32.6057C142.561 33.8632 141.481 35.3645 139.568 35.3645ZM155.339 33.0676C153.494 33.0676 151.581 33.8375 150.788 35.5184L153.057 36.4038C153.535 35.5184 154.437 35.2233 155.38 35.2233C156.706 35.2233 158.045 35.9675 158.059 37.2892V37.456C157.594 37.2122 156.61 36.8401 155.394 36.8401C152.948 36.8401 150.474 38.0976 150.474 40.4457C150.474 42.5886 152.469 43.9744 154.711 43.9744C156.419 43.9744 157.376 43.2558 157.963 42.409H158.045V43.6536H160.505V37.5073C160.519 34.6587 158.25 33.0676 155.339 33.0676ZM155.025 41.8572C154.191 41.8572 153.03 41.4594 153.03 40.4971C153.03 39.2652 154.478 38.7905 155.736 38.7905C156.856 38.7905 157.389 39.0214 158.059 39.3294C157.868 40.805 156.501 41.8572 155.025 41.8572ZM169.484 33.4141L166.56 40.3687H166.478L163.444 33.4141H160.697L165.248 43.1403L162.651 48.5424H165.316L172.327 33.4141H169.484ZM146.524 43.6793H149.08V27.6399H146.524V43.6793Z" fill="white"/>
<path d="M14.6417 14.8594C14.2453 15.2571 14.013 15.873 14.013 16.6558V45.039C14.013 45.8346 14.2453 46.4505 14.6417 46.8354L14.7373 46.9252L31.6704 31.0399V30.8474V30.6549L14.7373 14.7695L14.6417 14.8594Z" fill="url(#paint0_linear_321_2871)"/>
<path d="M37.3165 36.3393L31.6721 31.0398V30.8474V30.6549L37.3165 25.3555L37.4395 25.4196L44.1226 28.9868C46.0359 30.0005 46.0359 31.6686 44.1226 32.6951L37.4395 36.2623L37.3165 36.3393Z" fill="url(#paint1_linear_321_2871)"/>
<path d="M37.4387 36.2754L31.6713 30.8477L14.6428 46.8357C15.2714 47.4644 16.3101 47.5414 17.4854 46.9127L37.4387 36.2754Z" fill="url(#paint2_linear_321_2871)"/>
<path d="M37.4382 25.4326L17.4713 14.7825C16.296 14.1537 15.2574 14.2307 14.6287 14.8595L31.6709 30.8475L37.4382 25.4326Z" fill="url(#paint3_linear_321_2871)"/>
<path opacity="0.2" d="M37.3145 36.1475L17.4706 46.7334C16.3636 47.3237 15.3659 47.2852 14.7373 46.7462L14.6416 46.8361L14.7373 46.9259C15.3796 47.4648 16.3636 47.5033 17.4706 46.913L37.4375 36.2629L37.3145 36.1475Z" fill="black"/>
<path opacity="0.12" d="M14.6406 46.6558C14.2442 46.258 14.0118 45.6421 14.0118 44.8594V45.0518C14.0118 45.8474 14.2442 46.4633 14.6406 46.8482L14.7362 46.7584L14.6406 46.6558Z" fill="black"/>
<path opacity="0.12" d="M44.122 32.5157L37.3023 36.147L37.4253 36.2625L44.1083 32.6954C45.065 32.1821 45.5433 31.5149 45.5433 30.8477C45.475 31.4507 44.9966 32.0538 44.122 32.5157Z" fill="black"/>
<path opacity="0.25" d="M17.4713 14.9636L44.1214 29.1809C44.9824 29.6428 45.4744 30.233 45.5564 30.849C45.5564 30.1817 45.0781 29.5016 44.1214 29.0012L17.4713 14.784C15.558 13.7703 14 14.6172 14 16.6702V16.8627C14 14.7968 15.5717 13.9499 17.4713 14.9636Z" fill="white"/>
<rect x="1" y="1" width="185" height="60" rx="8" stroke="white"/>
<defs>
<linearGradient id="paint0_linear_321_2871" x1="30.1665" y1="16.3604" x2="8.6749" y2="39.2508" gradientUnits="userSpaceOnUse">
<stop stop-color="#00A0FF"/>
<stop offset="0.00657445" stop-color="#00A1FF"/>
<stop offset="0.2601" stop-color="#00BEFF"/>
<stop offset="0.5122" stop-color="#00D2FF"/>
<stop offset="0.7604" stop-color="#00DFFF"/>
<stop offset="1" stop-color="#00E3FF"/>
</linearGradient>
<linearGradient id="paint1_linear_321_2871" x1="46.6158" y1="30.8493" x2="13.5464" y2="30.8493" gradientUnits="userSpaceOnUse">
<stop stop-color="#FFE000"/>
<stop offset="0.4087" stop-color="#FFBD00"/>
<stop offset="0.7754" stop-color="#FFA500"/>
<stop offset="1" stop-color="#FF9C00"/>
</linearGradient>
<linearGradient id="paint2_linear_321_2871" x1="34.3048" y1="33.794" x2="5.16047" y2="64.8352" gradientUnits="userSpaceOnUse">
<stop stop-color="#FF3A44"/>
<stop offset="1" stop-color="#C31162"/>
</linearGradient>
<linearGradient id="paint3_linear_321_2871" x1="10.3472" y1="5.41076" x2="23.3615" y2="19.2719" gradientUnits="userSpaceOnUse">
<stop stop-color="#32A071"/>
<stop offset="0.0685" stop-color="#2DA771"/>
<stop offset="0.4762" stop-color="#15CF74"/>
<stop offset="0.8009" stop-color="#06E775"/>
<stop offset="1" stop-color="#00F076"/>
</linearGradient>
</defs>
</svg>
