<svg width="187" height="62" viewBox="0 0 187 62" fill="none" xmlns="http://www.w3.org/2000/svg">
<path d="M46.2081 30.2183C46.1671 26.6896 49.2831 24.9702 49.4334 24.8932C47.6704 22.4809 44.9371 22.1473 43.9804 22.1216C41.6844 21.8907 39.4567 23.4048 38.295 23.4048C37.106 23.4048 35.302 22.1345 33.3614 22.173C30.8604 22.2114 28.5233 23.5716 27.2523 25.6759C24.6147 29.9745 26.5827 36.2876 29.111 39.7649C30.382 41.4715 31.858 43.3705 33.7987 43.2935C35.6984 43.2165 36.409 42.1644 38.6914 42.1644C40.96 42.1644 41.6161 43.2935 43.5977 43.255C45.6341 43.2294 46.9187 41.5485 48.1351 39.829C49.5974 37.8787 50.1851 35.9539 50.2124 35.8641C50.1441 35.8513 46.2491 34.4527 46.2081 30.2183Z" fill="white"/>
<path d="M42.4773 19.8376C43.5023 18.6443 44.1993 17.0146 43.9943 15.3594C42.5183 15.4235 40.6733 16.3217 39.6073 17.4894C38.6643 18.5159 37.8306 20.2097 38.0493 21.8008C39.703 21.9163 41.4113 21.0181 42.4773 19.8376Z" fill="white"/>
<path d="M70.1656 38.9954H63.7013L62.1433 43.3068H59.41L65.5326 27.3701H68.3753L74.4979 43.3068H71.7099L70.1656 38.9954ZM64.371 37.0065H69.496L66.9676 30.0134H66.8993L64.371 37.0065Z" fill="white"/>
<path d="M87.7407 37.4945C87.7407 41.1002 85.6771 43.4227 82.5748 43.4227C80.8118 43.4227 79.4179 42.6785 78.6799 41.3953H78.6252V47.1438H76.0833V31.6819H78.5432V33.6194H78.5842C79.2949 32.3748 80.7982 31.5664 82.5202 31.5664C85.6771 31.5664 87.7407 33.8889 87.7407 37.4945ZM85.1304 37.4945C85.1304 35.1464 83.8321 33.5938 81.8642 33.5938C79.9235 33.5938 78.6115 35.172 78.6115 37.4945C78.6115 39.8299 79.9235 41.4081 81.8642 41.4081C83.8321 41.4081 85.1304 39.8684 85.1304 37.4945Z" fill="white"/>
<path d="M101.353 37.4945C101.353 41.1002 99.2896 43.4227 96.1872 43.4227C94.4242 43.4227 93.0302 42.6785 92.2922 41.3953H92.2376V47.1438H89.7092V31.6819H92.1692V33.6194H92.2102C92.9209 32.3748 94.4242 31.5664 96.1462 31.5664C99.2896 31.5664 101.353 33.8889 101.353 37.4945ZM98.7429 37.4945C98.7429 35.1464 97.4446 33.5938 95.4766 33.5938C93.5359 33.5938 92.2239 35.172 92.2239 37.4945C92.2239 39.8299 93.5359 41.4081 95.4766 41.4081C97.4582 41.4081 98.7429 39.8684 98.7429 37.4945Z" fill="white"/>
<path d="M110.36 38.8671C110.551 40.4453 112.177 41.4847 114.419 41.4847C116.564 41.4847 118.095 40.4453 118.095 39.021C118.095 37.7892 117.166 37.045 114.965 36.5317L112.765 36.0313C109.649 35.3256 108.2 33.9526 108.2 31.7327C108.2 28.9868 110.756 27.1006 114.378 27.1006C117.958 27.1006 120.418 28.9868 120.5 31.7327H117.931C117.781 30.1416 116.373 29.1793 114.337 29.1793C112.3 29.1793 110.893 30.1545 110.893 31.5659C110.893 32.6951 111.781 33.3495 113.968 33.8628L115.84 34.299C119.325 35.0689 120.774 36.3906 120.774 38.7131C120.774 41.69 118.245 43.5634 114.227 43.5634C110.469 43.5634 107.927 41.7413 107.763 38.8542H110.36V38.8671Z" fill="white"/>
<path d="M126.266 28.9355V31.6815H128.617V33.5677H126.266V39.9706C126.266 40.9715 126.731 41.4334 127.77 41.4334C128.029 41.4334 128.439 41.3949 128.603 41.3821V43.2555C128.316 43.3196 127.756 43.3709 127.196 43.3709C124.695 43.3709 123.711 42.4856 123.711 40.2401V33.5805H121.907V31.6943H123.711V28.9355H126.266Z" fill="white"/>
<path d="M129.971 37.4938C129.971 33.8369 132.267 31.54 135.834 31.54C139.415 31.54 141.697 33.8369 141.697 37.4938C141.697 41.1636 139.428 43.4476 135.834 43.4476C132.253 43.4476 129.971 41.1636 129.971 37.4938ZM139.128 37.4938C139.128 34.9917 137.897 33.5032 135.847 33.5032C133.797 33.5032 132.567 34.9917 132.567 37.4938C132.567 40.0088 133.784 41.4844 135.847 41.4844C137.911 41.4844 139.128 40.0088 139.128 37.4938Z" fill="white"/>
<path d="M143.815 31.681H146.234V33.6571H146.288C146.671 32.3483 147.806 31.5527 149.268 31.5527C149.637 31.5527 149.938 31.6041 150.143 31.6426V33.8752C149.938 33.7982 149.5 33.7341 149.008 33.7341C147.368 33.7341 146.357 34.7734 146.357 36.403V43.2935H143.815V31.681Z" fill="white"/>
<path d="M161.84 39.8933C161.499 41.9976 159.312 43.4476 156.511 43.4476C152.916 43.4476 150.675 41.1893 150.675 37.5451C150.675 33.901 152.916 31.54 156.401 31.54C159.818 31.54 161.977 33.747 161.977 37.2757V38.0969H153.244V38.238C153.244 40.2269 154.57 41.5229 156.579 41.5229C157.987 41.5229 159.094 40.8941 159.435 39.8933H161.84ZM153.258 36.416H159.449C159.394 34.6324 158.178 33.4648 156.415 33.4648C154.666 33.4776 153.395 34.6709 153.258 36.416Z" fill="white"/>
<path d="M64.0561 15.3721C66.4751 15.3721 67.8964 16.7707 67.8964 19.1702C67.8964 21.621 66.4888 23.0196 64.0561 23.0196H61.104V15.3721H64.0561ZM62.375 21.9418H63.9057C65.6141 21.9418 66.5981 20.9409 66.5981 19.183C66.5981 17.4508 65.6004 16.4499 63.9057 16.4499H62.375V21.9418Z" fill="white"/>
<path d="M69.3179 20.1325C69.3179 18.2719 70.4249 17.1299 72.2152 17.1299C74.0055 17.1299 75.1125 18.2591 75.1125 20.1325C75.1125 22.0059 74.0055 23.1351 72.2152 23.1351C70.4249 23.1351 69.3179 22.0059 69.3179 20.1325ZM73.8689 20.1325C73.8689 18.875 73.2675 18.1436 72.2152 18.1436C71.1629 18.1436 70.5615 18.875 70.5615 20.1325C70.5615 21.39 71.1492 22.1214 72.2152 22.1214C73.2812 22.1214 73.8689 21.39 73.8689 20.1325Z" fill="white"/>
<path d="M82.8339 23.032H81.5766L80.3056 18.7719H80.21L78.939 23.032H77.6953L76.0007 17.2578H77.2307L78.3376 21.6718H78.4333L79.7043 17.2578H80.8659L82.1369 21.6718H82.2326L83.3259 17.2578H84.5422L82.8339 23.032Z" fill="white"/>
<path d="M85.9503 17.2452H87.1257V18.1691H87.2214C87.522 17.5275 88.137 17.1426 89.0527 17.1426C90.4194 17.1426 91.1847 17.9125 91.1847 19.2854V23.0323H89.9684V19.5806C89.9684 18.6567 89.5447 18.1948 88.6427 18.1948C87.7407 18.1948 87.1667 18.7594 87.1667 19.6576V23.0323H85.9503V17.2452Z" fill="white"/>
<path d="M93.1116 15H94.328V23.0325H93.1116V15Z" fill="white"/>
<path d="M96.0231 20.1325C96.0231 18.2719 97.1301 17.1299 98.9204 17.1299C100.711 17.1299 101.818 18.2591 101.818 20.1325C101.818 22.0059 100.711 23.1351 98.9204 23.1351C97.1164 23.1351 96.0231 22.0059 96.0231 20.1325ZM100.574 20.1325C100.574 18.875 99.9727 18.1436 98.9204 18.1436C97.8681 18.1436 97.2668 18.875 97.2668 20.1325C97.2668 21.39 97.8544 22.1214 98.9204 22.1214C99.9727 22.1214 100.574 21.39 100.574 20.1325Z" fill="white"/>
<path d="M103.102 21.3898C103.102 20.3505 103.922 19.7474 105.384 19.6704L107.052 19.5806V19.0801C107.052 18.4642 106.628 18.1306 105.794 18.1306C105.111 18.1306 104.646 18.3616 104.51 18.7722H103.334C103.457 17.7842 104.455 17.1426 105.849 17.1426C107.393 17.1426 108.268 17.8611 108.268 19.0801V23.0323H107.093V22.2239H106.997C106.628 22.8013 105.958 23.1349 105.152 23.1349C103.963 23.1221 103.102 22.4549 103.102 21.3898ZM107.065 20.9022V20.4146L105.562 20.5045C104.715 20.5558 104.332 20.8252 104.332 21.3385C104.332 21.8646 104.81 22.1597 105.466 22.1597C106.382 22.1597 107.065 21.6208 107.065 20.9022Z" fill="white"/>
<path d="M109.866 20.1326C109.866 18.3105 110.864 17.1557 112.422 17.1557C113.269 17.1557 113.98 17.5278 114.308 18.1694H114.404V15H115.62V23.0325H114.445V22.1215H114.349C113.98 22.7502 113.269 23.1352 112.422 23.1352C110.85 23.1223 109.866 21.9675 109.866 20.1326ZM111.124 20.1326C111.124 21.3644 111.739 22.0958 112.764 22.0958C113.789 22.0958 114.417 21.3516 114.417 20.1326C114.417 18.9264 113.775 18.1694 112.764 18.1694C111.739 18.1822 111.124 18.9264 111.124 20.1326Z" fill="white"/>
<path d="M120.636 20.1325C120.636 18.2719 121.743 17.1299 123.533 17.1299C125.323 17.1299 126.43 18.2591 126.43 20.1325C126.43 22.0059 125.323 23.1351 123.533 23.1351C121.743 23.1351 120.636 22.0059 120.636 20.1325ZM125.187 20.1325C125.187 18.875 124.585 18.1436 123.533 18.1436C122.481 18.1436 121.879 18.875 121.879 20.1325C121.879 21.39 122.467 22.1214 123.533 22.1214C124.585 22.1214 125.187 21.39 125.187 20.1325Z" fill="white"/>
<path d="M128.071 17.2452H129.246V18.1691H129.342C129.642 17.5275 130.257 17.1426 131.173 17.1426C132.54 17.1426 133.305 17.9125 133.305 19.2854V23.0323H132.089V19.5806C132.089 18.6567 131.665 18.1948 130.763 18.1948C129.861 18.1948 129.287 18.7594 129.287 19.6576V23.0323H128.071V17.2452Z" fill="white"/>
<path d="M140.165 15.8086V17.2714H141.505V18.2337H140.165V21.2106C140.165 21.8137 140.425 22.0831 141.04 22.0831C141.231 22.0831 141.327 22.0703 141.505 22.0575V23.007C141.313 23.0327 141.081 23.0712 140.849 23.0712C139.496 23.0712 138.963 22.6221 138.963 21.5057V18.2466H137.992V17.2842H138.963V15.8086H140.165Z" fill="white"/>
<path d="M143.145 15H144.347V18.1822H144.443C144.744 17.5406 145.386 17.1429 146.315 17.1429C147.627 17.1429 148.434 17.9256 148.434 19.2985V23.0325H147.217V19.5808C147.217 18.657 146.766 18.195 145.905 18.195C144.908 18.195 144.361 18.7853 144.361 19.6578V23.0325H143.145V15Z" fill="white"/>
<path d="M155.526 21.4668C155.253 22.5062 154.269 23.1349 152.861 23.1349C151.099 23.1349 150.019 22.0057 150.019 20.158C150.019 18.3103 151.126 17.1426 152.861 17.1426C154.57 17.1426 155.608 18.2461 155.608 20.0553V20.4531H151.263V20.5173C151.304 21.531 151.932 22.1726 152.902 22.1726C153.64 22.1726 154.146 21.9288 154.365 21.4668H155.526ZM151.263 19.6062H154.365C154.337 18.6952 153.75 18.1049 152.848 18.1049C151.946 18.1049 151.331 18.708 151.263 19.6062Z" fill="white"/>
<rect x="1" y="1" width="185" height="60" rx="8" stroke="white"/>
</svg>
